G75*
%MOIN*%
%OFA0B0*%
%FSLAX25Y25*%
%IPPOS*%
%LPD*%
%AMOC8*
5,1,8,0,0,1.08239X$1,22.5*
%
%ADD10R,0.03600X0.00100*%
%ADD11R,0.04300X0.00100*%
%ADD12R,0.03700X0.00100*%
%ADD13R,0.04700X0.00100*%
%ADD14R,0.03800X0.00100*%
%ADD15R,0.04800X0.00100*%
%ADD16R,0.01600X0.00100*%
%ADD17R,0.02000X0.00100*%
%ADD18R,0.00500X0.00100*%
%ADD19R,0.00600X0.00100*%
%ADD20R,0.01900X0.00100*%
%ADD21R,0.02600X0.00100*%
%ADD22R,0.02100X0.00100*%
%ADD23R,0.02300X0.00100*%
%ADD24R,0.02200X0.00100*%
%ADD25R,0.02900X0.00100*%
%ADD26R,0.02800X0.00100*%
%ADD27R,0.02400X0.00100*%
%ADD28R,0.03000X0.00100*%
%ADD29R,0.03100X0.00100*%
%ADD30R,0.02700X0.00100*%
%ADD31R,0.59800X0.00100*%
%ADD32R,0.59700X0.00100*%
%ADD33R,0.00400X0.00100*%
%ADD34R,0.00700X0.00100*%
%ADD35R,0.01500X0.00100*%
%ADD36R,0.03200X0.00100*%
%ADD37R,0.03300X0.00100*%
%ADD38R,0.04000X0.00100*%
%ADD39R,0.03400X0.00100*%
%ADD40R,0.03500X0.00100*%
%ADD41R,0.00800X0.00100*%
%ADD42R,0.04100X0.00100*%
%ADD43R,0.00900X0.00100*%
%ADD44R,0.01100X0.00100*%
%ADD45R,0.04200X0.00100*%
%ADD46R,0.03900X0.00100*%
%ADD47R,0.01300X0.00100*%
%ADD48R,0.01400X0.00100*%
%ADD49R,0.04600X0.00100*%
%ADD50R,0.01700X0.00100*%
%ADD51R,0.04900X0.00100*%
%ADD52R,0.05100X0.00100*%
%ADD53R,0.05200X0.00100*%
%ADD54R,0.05400X0.00100*%
%ADD55R,0.05500X0.00100*%
%ADD56R,0.02500X0.00100*%
%ADD57R,0.05600X0.00100*%
%ADD58R,0.05700X0.00100*%
%ADD59R,0.05800X0.00100*%
%ADD60R,0.05900X0.00100*%
%ADD61R,0.01800X0.00100*%
%ADD62R,0.04500X0.00100*%
%ADD63R,0.06000X0.00100*%
%ADD64R,0.04400X0.00100*%
%ADD65R,0.01200X0.00100*%
%ADD66R,0.01000X0.00100*%
%ADD67R,0.10400X0.00100*%
%ADD68R,0.11900X0.00100*%
%ADD69R,0.10300X0.00100*%
%ADD70R,0.12000X0.00100*%
%ADD71R,0.10200X0.00100*%
%ADD72R,0.10100X0.00100*%
%ADD73R,0.10000X0.00100*%
%ADD74R,0.69700X0.00100*%
%ADD75R,0.69500X0.00100*%
%ADD76R,0.69400X0.00100*%
%ADD77R,0.69300X0.00100*%
%ADD78R,0.69000X0.00100*%
%ADD79R,0.68700X0.00100*%
D10*
X0125977Y0099114D03*
X0129677Y0103414D03*
X0128277Y0106914D03*
X0139977Y0106714D03*
X0141177Y0103414D03*
X0147277Y0107214D03*
X0148877Y0103014D03*
X0154177Y0103414D03*
X0166477Y0106914D03*
X0166577Y0106814D03*
X0167877Y0103414D03*
D11*
X0181327Y0099114D03*
X0116827Y0105514D03*
D12*
X0122527Y0107214D03*
X0122627Y0107014D03*
X0122827Y0106514D03*
X0122927Y0106314D03*
X0123227Y0105614D03*
X0123727Y0104414D03*
X0123927Y0103914D03*
X0124027Y0103714D03*
X0124127Y0103414D03*
X0124227Y0103214D03*
X0124727Y0102014D03*
X0124827Y0101814D03*
X0124927Y0101514D03*
X0125027Y0101314D03*
X0125127Y0101014D03*
X0125227Y0100814D03*
X0125327Y0100614D03*
X0125327Y0100514D03*
X0125427Y0100314D03*
X0125527Y0100114D03*
X0125627Y0099914D03*
X0125727Y0099614D03*
X0125827Y0099414D03*
X0125927Y0099214D03*
X0128327Y0106814D03*
X0141027Y0103714D03*
X0141127Y0103514D03*
X0152827Y0106814D03*
X0167927Y0103514D03*
D13*
X0178427Y0106914D03*
X0178427Y0107014D03*
X0178427Y0107114D03*
X0178327Y0107214D03*
X0178327Y0107314D03*
X0178527Y0106814D03*
X0178527Y0106714D03*
X0178627Y0106514D03*
X0178627Y0106414D03*
X0178727Y0106214D03*
X0178727Y0106114D03*
X0178827Y0105914D03*
X0178827Y0105814D03*
X0178927Y0105714D03*
X0178927Y0105614D03*
X0179027Y0105414D03*
X0179027Y0105314D03*
X0179127Y0105114D03*
X0179127Y0105014D03*
X0179227Y0104814D03*
X0179227Y0104714D03*
X0179327Y0104614D03*
X0179327Y0104514D03*
X0179327Y0104414D03*
X0179427Y0104314D03*
X0179427Y0104214D03*
X0179527Y0104014D03*
X0179527Y0103914D03*
X0179627Y0103714D03*
X0179627Y0103614D03*
X0179727Y0103514D03*
X0179727Y0103414D03*
X0179827Y0103214D03*
X0179827Y0103114D03*
X0180127Y0102314D03*
X0180127Y0102214D03*
X0180227Y0102114D03*
X0180227Y0102014D03*
X0180227Y0101914D03*
X0180327Y0101814D03*
X0180327Y0101714D03*
X0180327Y0101614D03*
X0180427Y0101514D03*
X0180427Y0101414D03*
X0180527Y0101314D03*
X0180527Y0101214D03*
X0180527Y0101114D03*
X0180627Y0101014D03*
X0180627Y0100914D03*
X0180727Y0100714D03*
X0180727Y0100614D03*
X0180827Y0100414D03*
X0180827Y0100314D03*
X0180927Y0100114D03*
X0180927Y0100014D03*
X0181027Y0099914D03*
X0181027Y0099814D03*
X0181027Y0099714D03*
X0181127Y0099614D03*
X0181127Y0099514D03*
X0181227Y0099314D03*
X0181227Y0099214D03*
D14*
X0167877Y0103614D03*
X0167877Y0103714D03*
X0166777Y0106614D03*
X0166677Y0106714D03*
X0154177Y0103514D03*
X0148777Y0103114D03*
X0147177Y0107014D03*
X0147177Y0107114D03*
X0141077Y0103614D03*
X0129577Y0103514D03*
X0124877Y0101714D03*
X0124877Y0101614D03*
X0124977Y0101414D03*
X0125077Y0101214D03*
X0125077Y0101114D03*
X0125177Y0100914D03*
X0125277Y0100714D03*
X0125377Y0100414D03*
X0125477Y0100214D03*
X0125577Y0100014D03*
X0125677Y0099814D03*
X0125677Y0099714D03*
X0125777Y0099514D03*
X0125877Y0099314D03*
X0124777Y0101914D03*
X0124677Y0102114D03*
X0124677Y0102214D03*
X0124577Y0102314D03*
X0124277Y0103014D03*
X0124277Y0103114D03*
X0124177Y0103314D03*
X0124077Y0103514D03*
X0124077Y0103614D03*
X0123977Y0103814D03*
X0123877Y0104014D03*
X0123877Y0104114D03*
X0123777Y0104214D03*
X0123777Y0104314D03*
X0123677Y0104514D03*
X0123677Y0104614D03*
X0123577Y0104714D03*
X0123577Y0104814D03*
X0123477Y0104914D03*
X0123477Y0105014D03*
X0123477Y0105114D03*
X0123377Y0105214D03*
X0123377Y0105314D03*
X0123277Y0105414D03*
X0123277Y0105514D03*
X0123177Y0105714D03*
X0123177Y0105814D03*
X0123077Y0105914D03*
X0123077Y0106014D03*
X0122977Y0106114D03*
X0122977Y0106214D03*
X0122877Y0106414D03*
X0122777Y0106614D03*
X0122777Y0106714D03*
X0122677Y0106814D03*
X0122677Y0106914D03*
X0122577Y0107114D03*
X0122477Y0107314D03*
X0122477Y0107414D03*
X0116277Y0106114D03*
X0116177Y0106314D03*
X0116077Y0106514D03*
D15*
X0178277Y0107414D03*
X0178577Y0106614D03*
X0178677Y0106314D03*
X0178777Y0106014D03*
X0178977Y0105514D03*
X0179077Y0105214D03*
X0179177Y0104914D03*
X0179477Y0104114D03*
X0179577Y0103814D03*
X0179777Y0103314D03*
X0179877Y0103014D03*
X0180677Y0100814D03*
X0180777Y0100514D03*
X0180877Y0100214D03*
X0181177Y0099414D03*
D16*
X0175377Y0103014D03*
X0175277Y0103114D03*
X0175277Y0103214D03*
X0175177Y0103314D03*
X0175177Y0103414D03*
X0175077Y0103614D03*
X0175077Y0103714D03*
X0174977Y0103914D03*
X0174977Y0104014D03*
X0174877Y0104114D03*
X0174877Y0104214D03*
X0174777Y0104414D03*
X0174777Y0104514D03*
X0174677Y0104714D03*
X0174677Y0104814D03*
X0174577Y0104914D03*
X0174277Y0105714D03*
X0174277Y0105814D03*
X0174177Y0105914D03*
X0174177Y0106014D03*
X0174177Y0106114D03*
X0174077Y0106214D03*
X0174077Y0106314D03*
X0173977Y0106514D03*
X0173877Y0106714D03*
X0173877Y0106814D03*
X0173777Y0107014D03*
X0173677Y0107214D03*
X0171277Y0106214D03*
X0171277Y0106114D03*
X0171277Y0106014D03*
X0171377Y0105914D03*
X0171377Y0105814D03*
X0171177Y0106314D03*
X0171177Y0106414D03*
X0171077Y0106514D03*
X0171077Y0106614D03*
X0171077Y0106714D03*
X0170977Y0106814D03*
X0170977Y0106914D03*
X0170877Y0107014D03*
X0170877Y0107114D03*
X0170877Y0107214D03*
X0171777Y0104914D03*
X0171777Y0104814D03*
X0171777Y0104714D03*
X0171877Y0104614D03*
X0171877Y0104514D03*
X0171977Y0104314D03*
X0172077Y0104114D03*
X0172077Y0104014D03*
X0172177Y0103914D03*
X0172177Y0103814D03*
X0172177Y0103714D03*
X0172277Y0103614D03*
X0172277Y0103514D03*
X0172377Y0103314D03*
X0172377Y0103214D03*
X0172477Y0103114D03*
X0172477Y0103014D03*
X0168977Y0103914D03*
X0168977Y0104014D03*
X0168977Y0104114D03*
X0168877Y0104514D03*
X0168477Y0105614D03*
X0168377Y0105814D03*
X0168277Y0106014D03*
X0168177Y0106114D03*
X0168177Y0106214D03*
X0168077Y0106314D03*
X0167977Y0106414D03*
X0161377Y0106014D03*
X0161377Y0105914D03*
X0160777Y0103814D03*
X0158777Y0103114D03*
X0158777Y0103014D03*
X0158677Y0103214D03*
X0158677Y0103314D03*
X0158577Y0103514D03*
X0158577Y0103614D03*
X0158477Y0103714D03*
X0158477Y0103814D03*
X0158377Y0103914D03*
X0158377Y0104014D03*
X0158377Y0104114D03*
X0158277Y0104214D03*
X0158277Y0104314D03*
X0158177Y0104514D03*
X0158177Y0104614D03*
X0157677Y0105914D03*
X0157577Y0106014D03*
X0154977Y0105214D03*
X0154877Y0105414D03*
X0154777Y0105614D03*
X0154777Y0105714D03*
X0154677Y0105814D03*
X0154677Y0105914D03*
X0154577Y0106014D03*
X0154477Y0106214D03*
X0154377Y0106314D03*
X0154177Y0106514D03*
X0155177Y0104714D03*
X0155177Y0104614D03*
X0155177Y0104514D03*
X0155277Y0104314D03*
X0155277Y0104214D03*
X0155277Y0104114D03*
X0155277Y0104014D03*
X0155277Y0103914D03*
X0155277Y0103814D03*
X0152677Y0103914D03*
X0152577Y0104114D03*
X0152477Y0104214D03*
X0152477Y0104314D03*
X0152377Y0104414D03*
X0152277Y0104614D03*
X0152177Y0104814D03*
X0151877Y0105614D03*
X0151777Y0105914D03*
X0151777Y0106014D03*
X0149077Y0105214D03*
X0149077Y0105114D03*
X0149077Y0105014D03*
X0149177Y0104914D03*
X0149177Y0104814D03*
X0149277Y0104714D03*
X0149277Y0104614D03*
X0149277Y0104514D03*
X0149377Y0104414D03*
X0149377Y0104314D03*
X0149377Y0104214D03*
X0149477Y0104114D03*
X0149477Y0104014D03*
X0149577Y0103914D03*
X0149577Y0103814D03*
X0148977Y0105314D03*
X0148977Y0105414D03*
X0148877Y0105514D03*
X0148877Y0105614D03*
X0148777Y0105814D03*
X0148777Y0105914D03*
X0148677Y0106014D03*
X0148677Y0106114D03*
X0148677Y0106214D03*
X0148577Y0106314D03*
X0148577Y0106414D03*
X0148477Y0106514D03*
X0146377Y0104614D03*
X0146277Y0104814D03*
X0146477Y0104414D03*
X0146577Y0104314D03*
X0146577Y0104214D03*
X0146677Y0104114D03*
X0146777Y0104014D03*
X0146777Y0103914D03*
X0145877Y0105914D03*
X0145877Y0106014D03*
X0145877Y0106114D03*
X0145877Y0106214D03*
X0151077Y0101414D03*
X0151777Y0099814D03*
X0140777Y0099814D03*
X0140077Y0101414D03*
X0137077Y0103014D03*
X0137077Y0103114D03*
X0136977Y0103314D03*
X0136977Y0103414D03*
X0136877Y0103614D03*
X0136877Y0103714D03*
X0136777Y0103814D03*
X0136777Y0103914D03*
X0136677Y0104114D03*
X0136677Y0104214D03*
X0136577Y0104314D03*
X0136577Y0104414D03*
X0136577Y0104514D03*
X0136477Y0104614D03*
X0136477Y0104714D03*
X0136377Y0104914D03*
X0136077Y0105714D03*
X0135977Y0105914D03*
X0135977Y0106014D03*
X0135877Y0106214D03*
X0135777Y0106414D03*
X0135777Y0106514D03*
X0135677Y0106614D03*
X0135677Y0106714D03*
X0135677Y0106814D03*
X0135577Y0106914D03*
X0135577Y0107014D03*
X0135477Y0107114D03*
X0135477Y0107214D03*
X0133577Y0104814D03*
X0133577Y0104714D03*
X0133677Y0104614D03*
X0133677Y0104514D03*
X0133777Y0104314D03*
X0133777Y0104214D03*
X0133877Y0104114D03*
X0133877Y0104014D03*
X0133877Y0103914D03*
X0133977Y0103814D03*
X0133977Y0103714D03*
X0134077Y0103514D03*
X0134177Y0103314D03*
X0134177Y0103214D03*
X0134277Y0103014D03*
X0131477Y0099814D03*
X0130777Y0101414D03*
X0130777Y0103814D03*
X0130777Y0103914D03*
X0130777Y0104014D03*
X0130777Y0104114D03*
X0130777Y0104214D03*
X0130777Y0104314D03*
X0130677Y0104514D03*
X0130677Y0104614D03*
X0130677Y0104714D03*
X0130577Y0104814D03*
X0130577Y0104914D03*
X0130477Y0105114D03*
X0130377Y0105314D03*
X0130277Y0105614D03*
X0130177Y0105814D03*
X0130177Y0105914D03*
X0130077Y0106014D03*
X0129977Y0106114D03*
X0129977Y0106214D03*
X0129877Y0106314D03*
X0129777Y0106414D03*
X0129677Y0106514D03*
X0127977Y0104214D03*
X0128077Y0104014D03*
X0128177Y0103914D03*
X0128277Y0103814D03*
X0127277Y0105914D03*
X0127277Y0106014D03*
X0132677Y0107014D03*
X0132677Y0107114D03*
X0132677Y0107214D03*
X0132777Y0106914D03*
X0132777Y0106814D03*
X0132877Y0106714D03*
X0132877Y0106614D03*
X0132877Y0106514D03*
X0132977Y0106414D03*
X0132977Y0106314D03*
X0133077Y0106214D03*
X0133077Y0106114D03*
X0133077Y0106014D03*
X0133177Y0105914D03*
X0133177Y0105814D03*
D17*
X0133377Y0101414D03*
X0134077Y0099814D03*
X0137577Y0101414D03*
X0140077Y0103814D03*
X0140077Y0103914D03*
X0145377Y0101414D03*
X0145777Y0100514D03*
X0148477Y0101414D03*
X0149177Y0099814D03*
X0157177Y0101414D03*
X0157777Y0099814D03*
X0160677Y0104114D03*
X0158077Y0105414D03*
X0157977Y0105514D03*
X0166477Y0105114D03*
D18*
X0166827Y0101414D03*
X0166827Y0101314D03*
X0166927Y0101214D03*
X0166927Y0101114D03*
X0167027Y0100914D03*
X0167127Y0100714D03*
X0167127Y0100614D03*
X0167227Y0100514D03*
X0167227Y0100414D03*
X0167327Y0100214D03*
X0168427Y0100514D03*
X0168427Y0100614D03*
X0168327Y0100814D03*
X0168327Y0100914D03*
X0168227Y0101014D03*
X0168227Y0101114D03*
X0168127Y0101314D03*
X0168127Y0101414D03*
X0169027Y0101414D03*
X0169027Y0101314D03*
X0169127Y0101114D03*
X0169127Y0101014D03*
X0169227Y0100914D03*
X0169227Y0100814D03*
X0169327Y0100614D03*
X0169327Y0100514D03*
X0169427Y0100414D03*
X0169427Y0100314D03*
X0169527Y0100214D03*
X0168527Y0100314D03*
X0168527Y0100414D03*
X0170427Y0100914D03*
X0170427Y0101014D03*
X0170327Y0101214D03*
X0170327Y0101314D03*
X0170227Y0101414D03*
X0170527Y0100814D03*
X0170527Y0100714D03*
X0170627Y0100514D03*
X0170627Y0100414D03*
X0170727Y0100314D03*
X0170727Y0100214D03*
X0171727Y0100814D03*
X0171727Y0100914D03*
X0171627Y0101114D03*
X0171627Y0101214D03*
X0171527Y0101314D03*
X0171527Y0101414D03*
X0171827Y0100714D03*
X0171827Y0100614D03*
X0171927Y0100414D03*
X0171927Y0100314D03*
X0172027Y0100214D03*
X0172727Y0100614D03*
X0172727Y0100714D03*
X0172627Y0100914D03*
X0172627Y0101014D03*
X0172527Y0101114D03*
X0172527Y0101214D03*
X0172427Y0101414D03*
X0172827Y0100514D03*
X0172827Y0100414D03*
X0172927Y0100214D03*
X0174027Y0100514D03*
X0174027Y0100614D03*
X0173927Y0100814D03*
X0173927Y0100914D03*
X0173827Y0101014D03*
X0173827Y0101114D03*
X0173727Y0101314D03*
X0173727Y0101414D03*
X0174127Y0100414D03*
X0174127Y0100314D03*
X0175127Y0100914D03*
X0175127Y0101014D03*
X0175027Y0101214D03*
X0175027Y0101314D03*
X0174927Y0101414D03*
X0175227Y0100814D03*
X0175227Y0100714D03*
X0175327Y0100514D03*
X0175327Y0100414D03*
X0175427Y0100314D03*
X0175427Y0100214D03*
X0166027Y0100214D03*
X0166027Y0100314D03*
X0165927Y0100514D03*
X0165927Y0100614D03*
X0165827Y0100714D03*
X0165827Y0100814D03*
X0165727Y0101014D03*
X0165727Y0101114D03*
X0165627Y0101214D03*
X0165627Y0101314D03*
X0165227Y0100014D03*
X0165227Y0099914D03*
X0165327Y0099814D03*
X0163427Y0099814D03*
X0163227Y0100314D03*
X0161527Y0100014D03*
X0161527Y0099914D03*
X0161427Y0100114D03*
X0161427Y0100214D03*
X0161327Y0100414D03*
X0161127Y0100914D03*
X0161127Y0101014D03*
X0161027Y0101114D03*
X0161027Y0101214D03*
X0160927Y0101414D03*
X0159427Y0100914D03*
X0159427Y0100814D03*
X0159327Y0101014D03*
X0159327Y0101114D03*
X0159227Y0101314D03*
X0159227Y0101414D03*
X0158527Y0100914D03*
X0158527Y0100814D03*
X0158427Y0101014D03*
X0158727Y0100314D03*
X0158727Y0100214D03*
X0159627Y0100314D03*
X0159627Y0100414D03*
X0159727Y0100114D03*
X0159727Y0100014D03*
X0159827Y0099914D03*
X0159827Y0099814D03*
X0161027Y0103114D03*
X0155827Y0100614D03*
X0155827Y0100514D03*
X0155927Y0100414D03*
X0155927Y0100314D03*
X0156027Y0100114D03*
X0156027Y0100014D03*
X0156127Y0099914D03*
X0156127Y0099814D03*
X0155727Y0100814D03*
X0155627Y0101014D03*
X0154627Y0100514D03*
X0154627Y0100414D03*
X0154527Y0100614D03*
X0154527Y0100714D03*
X0154427Y0100914D03*
X0154427Y0101014D03*
X0154727Y0100214D03*
X0154727Y0100114D03*
X0154827Y0100014D03*
X0154827Y0099914D03*
X0153627Y0099814D03*
X0153527Y0100014D03*
X0153527Y0100114D03*
X0153427Y0100214D03*
X0153427Y0100314D03*
X0153327Y0100514D03*
X0153327Y0100614D03*
X0153227Y0100714D03*
X0153227Y0100814D03*
X0153127Y0101014D03*
X0152327Y0100814D03*
X0152327Y0100714D03*
X0152227Y0100914D03*
X0152227Y0101014D03*
X0152427Y0100514D03*
X0152427Y0100414D03*
X0152527Y0100314D03*
X0152527Y0100214D03*
X0150627Y0100314D03*
X0150627Y0100414D03*
X0150527Y0100514D03*
X0150527Y0100614D03*
X0150427Y0100814D03*
X0150427Y0100914D03*
X0150327Y0101014D03*
X0149527Y0100814D03*
X0149527Y0100714D03*
X0149427Y0100914D03*
X0149427Y0101014D03*
X0149627Y0100514D03*
X0149627Y0100414D03*
X0149727Y0100314D03*
X0149727Y0100214D03*
X0147927Y0100214D03*
X0147827Y0100314D03*
X0147827Y0100414D03*
X0147727Y0100514D03*
X0147727Y0100614D03*
X0147627Y0100814D03*
X0147627Y0100914D03*
X0146627Y0101014D03*
X0144227Y0100214D03*
X0144227Y0100114D03*
X0144127Y0100314D03*
X0144127Y0100414D03*
X0143927Y0100814D03*
X0143927Y0100914D03*
X0143827Y0101114D03*
X0143827Y0101214D03*
X0143727Y0101314D03*
X0143727Y0101414D03*
X0144327Y0099914D03*
X0144327Y0099814D03*
X0142627Y0099814D03*
X0142527Y0100014D03*
X0142527Y0100114D03*
X0142427Y0100214D03*
X0142427Y0100314D03*
X0142227Y0100814D03*
X0142127Y0101014D03*
X0142127Y0101114D03*
X0142027Y0101214D03*
X0142027Y0101314D03*
X0141227Y0101014D03*
X0141227Y0100914D03*
X0141327Y0100814D03*
X0141327Y0100714D03*
X0141427Y0100514D03*
X0141427Y0100414D03*
X0141527Y0100314D03*
X0141527Y0100214D03*
X0139627Y0100314D03*
X0139627Y0100414D03*
X0139527Y0100514D03*
X0139527Y0100614D03*
X0139427Y0100814D03*
X0139427Y0100914D03*
X0139327Y0101014D03*
X0136127Y0099814D03*
X0136027Y0099914D03*
X0136027Y0100014D03*
X0135027Y0100214D03*
X0134927Y0100414D03*
X0134927Y0100514D03*
X0134827Y0100614D03*
X0134827Y0100714D03*
X0134727Y0100914D03*
X0134727Y0101014D03*
X0132227Y0100314D03*
X0132227Y0100214D03*
X0132127Y0100414D03*
X0132127Y0100514D03*
X0132027Y0100614D03*
X0132027Y0100714D03*
X0131927Y0100914D03*
X0131927Y0101014D03*
X0130227Y0100614D03*
X0130227Y0100514D03*
X0130327Y0100314D03*
X0130127Y0100814D03*
X0130027Y0101014D03*
D19*
X0130077Y0100914D03*
X0130177Y0100714D03*
X0130277Y0100414D03*
X0130377Y0100214D03*
X0131977Y0100814D03*
X0134777Y0100814D03*
X0134977Y0100314D03*
X0135977Y0100114D03*
X0136677Y0100814D03*
X0136577Y0100914D03*
X0136577Y0101014D03*
X0138377Y0101014D03*
X0138477Y0100914D03*
X0138477Y0100814D03*
X0138677Y0100414D03*
X0138677Y0100314D03*
X0138677Y0100214D03*
X0138777Y0100114D03*
X0138777Y0100014D03*
X0138877Y0099914D03*
X0138877Y0099814D03*
X0139677Y0100214D03*
X0139477Y0100714D03*
X0141377Y0100614D03*
X0142177Y0100914D03*
X0141977Y0101414D03*
X0142377Y0100414D03*
X0142577Y0099914D03*
X0143877Y0101014D03*
X0144277Y0100014D03*
X0145077Y0100314D03*
X0145077Y0100414D03*
X0145177Y0100214D03*
X0146677Y0100814D03*
X0146677Y0100914D03*
X0147577Y0101014D03*
X0147677Y0100714D03*
X0149577Y0100614D03*
X0150477Y0100714D03*
X0150677Y0100214D03*
X0152377Y0100614D03*
X0153177Y0100914D03*
X0153377Y0100414D03*
X0153577Y0099914D03*
X0154677Y0100314D03*
X0154477Y0100814D03*
X0154877Y0099814D03*
X0155977Y0100214D03*
X0155777Y0100714D03*
X0155677Y0100914D03*
X0158677Y0100414D03*
X0159277Y0101214D03*
X0159677Y0100214D03*
X0161177Y0100814D03*
X0160977Y0101314D03*
X0161377Y0100314D03*
X0161577Y0099814D03*
X0163077Y0100614D03*
X0163077Y0100714D03*
X0162977Y0100814D03*
X0162977Y0100914D03*
X0162977Y0101014D03*
X0163177Y0100514D03*
X0163177Y0100414D03*
X0163277Y0100214D03*
X0163277Y0100114D03*
X0163377Y0100014D03*
X0163377Y0099914D03*
X0165177Y0100114D03*
X0165977Y0100414D03*
X0165777Y0100914D03*
X0165577Y0101414D03*
X0166977Y0101014D03*
X0167077Y0100814D03*
X0167277Y0100314D03*
X0168377Y0100714D03*
X0168177Y0101214D03*
X0169077Y0101214D03*
X0169277Y0100714D03*
X0168577Y0100214D03*
X0170377Y0101114D03*
X0170577Y0100614D03*
X0171677Y0101014D03*
X0171877Y0100514D03*
X0172677Y0100814D03*
X0172477Y0101314D03*
X0172877Y0100314D03*
X0173977Y0100714D03*
X0173777Y0101214D03*
X0174177Y0100214D03*
X0175277Y0100614D03*
X0175077Y0101114D03*
X0160977Y0103214D03*
X0156677Y0107214D03*
D20*
X0157927Y0105614D03*
X0160727Y0104014D03*
X0161427Y0105414D03*
X0161427Y0105514D03*
X0146427Y0099814D03*
X0141027Y0106314D03*
X0141027Y0106414D03*
D21*
X0140477Y0104914D03*
X0158577Y0104714D03*
X0167677Y0099814D03*
X0171077Y0099814D03*
X0174577Y0099814D03*
D22*
X0166527Y0105014D03*
X0166427Y0105214D03*
X0166427Y0105314D03*
X0166327Y0105414D03*
X0166327Y0105514D03*
X0166327Y0105614D03*
X0161427Y0105314D03*
X0161427Y0105214D03*
X0160627Y0104214D03*
X0158127Y0105314D03*
X0151127Y0101314D03*
X0151727Y0099914D03*
X0145927Y0100714D03*
X0140727Y0099914D03*
X0140127Y0101314D03*
X0140127Y0104014D03*
X0141027Y0106214D03*
X0130827Y0101314D03*
X0131427Y0099914D03*
D23*
X0131427Y0100014D03*
X0131327Y0100114D03*
X0130927Y0101114D03*
X0133627Y0101214D03*
X0133727Y0101114D03*
X0134127Y0100114D03*
X0134127Y0100014D03*
X0134127Y0099914D03*
X0137427Y0101214D03*
X0137427Y0101314D03*
X0140227Y0101114D03*
X0140727Y0100014D03*
X0143127Y0100714D03*
X0143227Y0100514D03*
X0145527Y0101314D03*
X0145627Y0101214D03*
X0148427Y0101214D03*
X0148427Y0101314D03*
X0148927Y0100014D03*
X0149027Y0099914D03*
X0151227Y0101114D03*
X0151727Y0100014D03*
X0157427Y0101214D03*
X0157727Y0100614D03*
X0160327Y0100714D03*
X0160427Y0100514D03*
X0162827Y0101314D03*
X0161427Y0105014D03*
X0158327Y0105014D03*
X0140927Y0105814D03*
X0140927Y0105914D03*
X0140127Y0104214D03*
D24*
X0140077Y0104114D03*
X0140977Y0106014D03*
X0140977Y0106114D03*
X0140177Y0101214D03*
X0137777Y0100514D03*
X0133577Y0101314D03*
X0130877Y0101214D03*
X0143177Y0100614D03*
X0145877Y0100614D03*
X0146277Y0099914D03*
X0151177Y0101214D03*
X0157277Y0101314D03*
X0157677Y0100714D03*
X0157777Y0100514D03*
X0157877Y0099914D03*
X0160377Y0100614D03*
X0161477Y0105114D03*
X0158277Y0105114D03*
X0158177Y0105214D03*
D25*
X0154327Y0101314D03*
X0167427Y0100014D03*
X0167527Y0099914D03*
X0170927Y0099914D03*
D26*
X0174377Y0099914D03*
D27*
X0162877Y0101114D03*
X0162877Y0101214D03*
X0162777Y0101414D03*
X0161477Y0104814D03*
X0161477Y0104914D03*
X0160577Y0104314D03*
X0158477Y0104914D03*
X0157477Y0101114D03*
X0157877Y0100114D03*
X0157877Y0100014D03*
X0151677Y0100114D03*
X0148877Y0100114D03*
X0148477Y0101114D03*
X0146177Y0100014D03*
X0146077Y0100114D03*
X0145677Y0101114D03*
X0140877Y0105714D03*
X0140277Y0104514D03*
X0140177Y0104414D03*
X0140177Y0104314D03*
X0137477Y0101114D03*
X0137577Y0100714D03*
X0137677Y0100614D03*
X0140677Y0100114D03*
D28*
X0141677Y0103014D03*
X0139477Y0107214D03*
X0129777Y0103114D03*
X0154277Y0103114D03*
X0154377Y0101214D03*
X0154377Y0101114D03*
X0167377Y0100114D03*
X0170777Y0100114D03*
X0170877Y0100014D03*
X0174277Y0100014D03*
D29*
X0174227Y0100114D03*
X0167827Y0103014D03*
X0128227Y0107114D03*
D30*
X0128227Y0107214D03*
X0129827Y0103014D03*
X0152727Y0107214D03*
X0154327Y0103014D03*
X0154427Y0101414D03*
X0160527Y0104514D03*
D31*
X0152577Y0102414D03*
X0152477Y0102614D03*
X0152477Y0102714D03*
X0152377Y0102814D03*
X0152377Y0102914D03*
D32*
X0152527Y0102514D03*
D33*
X0161077Y0103014D03*
D34*
X0162727Y0103614D03*
X0162727Y0103714D03*
X0162627Y0103914D03*
X0162627Y0104014D03*
X0162527Y0104214D03*
X0162527Y0104314D03*
X0162427Y0104414D03*
X0162427Y0104514D03*
X0162327Y0104614D03*
X0162827Y0103514D03*
X0162827Y0103414D03*
X0162927Y0103214D03*
X0162927Y0103114D03*
X0163027Y0103014D03*
X0161327Y0107214D03*
X0156727Y0107114D03*
D35*
X0157527Y0106114D03*
X0158227Y0104414D03*
X0158627Y0103414D03*
X0161427Y0106114D03*
X0154527Y0106114D03*
X0154327Y0106414D03*
X0148827Y0105714D03*
X0137027Y0103214D03*
X0136927Y0103514D03*
X0136727Y0104014D03*
X0134227Y0103114D03*
X0134127Y0103414D03*
X0134027Y0103614D03*
X0133727Y0104414D03*
X0133527Y0104914D03*
X0128027Y0104114D03*
X0171927Y0104414D03*
X0172027Y0104214D03*
X0172327Y0103414D03*
X0174827Y0104314D03*
X0174727Y0104614D03*
X0175027Y0103814D03*
X0175127Y0103514D03*
X0174027Y0106414D03*
X0173927Y0106614D03*
X0173827Y0106914D03*
X0173727Y0107114D03*
D36*
X0167877Y0103114D03*
X0166177Y0107214D03*
X0152777Y0107114D03*
X0141577Y0103114D03*
X0139677Y0107114D03*
D37*
X0139727Y0107014D03*
X0141427Y0103214D03*
X0129727Y0103214D03*
X0128227Y0107014D03*
X0154227Y0103214D03*
X0166327Y0107114D03*
D38*
X0116477Y0105814D03*
X0116577Y0105714D03*
X0115977Y0106914D03*
X0115977Y0107014D03*
X0115977Y0107114D03*
X0115977Y0107214D03*
X0128377Y0106614D03*
X0129577Y0103614D03*
X0147177Y0106914D03*
X0148577Y0103314D03*
X0148677Y0103214D03*
X0152977Y0106614D03*
X0154077Y0103714D03*
D39*
X0152777Y0107014D03*
X0139777Y0106914D03*
X0167877Y0103214D03*
D40*
X0167927Y0103314D03*
X0166427Y0107014D03*
X0154227Y0103314D03*
X0152827Y0106914D03*
X0141327Y0103314D03*
X0140027Y0106614D03*
X0139927Y0106814D03*
X0129727Y0103314D03*
D41*
X0156877Y0107014D03*
X0160977Y0103314D03*
X0162677Y0103814D03*
X0162577Y0104114D03*
X0162877Y0103314D03*
D42*
X0148527Y0103414D03*
X0148427Y0103514D03*
X0147127Y0106814D03*
X0129527Y0103714D03*
X0116727Y0105614D03*
X0116027Y0107314D03*
D43*
X0156927Y0106914D03*
X0159527Y0104614D03*
X0160927Y0103414D03*
X0161327Y0106914D03*
X0161327Y0107014D03*
X0161327Y0107114D03*
D44*
X0161327Y0106714D03*
X0161327Y0106614D03*
X0160927Y0103514D03*
X0157127Y0106614D03*
D45*
X0148377Y0103614D03*
X0148277Y0103714D03*
X0147177Y0106614D03*
X0147177Y0106714D03*
X0119377Y0103714D03*
D46*
X0116427Y0105914D03*
X0116327Y0106014D03*
X0116227Y0106214D03*
X0116127Y0106414D03*
X0116027Y0106614D03*
X0116027Y0106714D03*
X0116027Y0106814D03*
X0128327Y0106714D03*
X0152927Y0106714D03*
X0154127Y0103614D03*
D47*
X0160827Y0103614D03*
X0161327Y0106414D03*
D48*
X0161377Y0106314D03*
X0161377Y0106214D03*
X0160777Y0103714D03*
X0157477Y0106214D03*
X0157377Y0106314D03*
D49*
X0119177Y0103814D03*
X0116177Y0107414D03*
D50*
X0127227Y0106414D03*
X0127227Y0106314D03*
X0127227Y0106214D03*
X0127227Y0106114D03*
X0127327Y0105814D03*
X0127327Y0105714D03*
X0127327Y0105614D03*
X0127427Y0105514D03*
X0127427Y0105414D03*
X0127527Y0105214D03*
X0127527Y0105114D03*
X0127627Y0104914D03*
X0127627Y0104814D03*
X0127727Y0104714D03*
X0127727Y0104614D03*
X0127827Y0104514D03*
X0127827Y0104414D03*
X0127927Y0104314D03*
X0130327Y0105414D03*
X0130327Y0105514D03*
X0130227Y0105714D03*
X0130427Y0105214D03*
X0130527Y0105014D03*
X0130727Y0104414D03*
X0133227Y0105714D03*
X0135827Y0106314D03*
X0135927Y0106114D03*
X0136027Y0105814D03*
X0136427Y0104814D03*
X0145827Y0106314D03*
X0145827Y0106414D03*
X0145927Y0105814D03*
X0145927Y0105714D03*
X0146027Y0105514D03*
X0146027Y0105414D03*
X0146127Y0105314D03*
X0146127Y0105214D03*
X0146127Y0105114D03*
X0146227Y0105014D03*
X0146227Y0104914D03*
X0146327Y0104714D03*
X0146427Y0104514D03*
X0146927Y0103814D03*
X0151827Y0105714D03*
X0151827Y0105814D03*
X0151727Y0106114D03*
X0151727Y0106214D03*
X0151727Y0106314D03*
X0151727Y0106414D03*
X0151927Y0105514D03*
X0151927Y0105414D03*
X0152027Y0105314D03*
X0152027Y0105214D03*
X0152027Y0105114D03*
X0152127Y0105014D03*
X0152127Y0104914D03*
X0152227Y0104714D03*
X0152327Y0104514D03*
X0152627Y0104014D03*
X0152827Y0103814D03*
X0155227Y0104414D03*
X0155127Y0104814D03*
X0155127Y0104914D03*
X0155027Y0105014D03*
X0155027Y0105114D03*
X0154927Y0105314D03*
X0154827Y0105514D03*
X0157727Y0105814D03*
X0161027Y0104614D03*
X0160727Y0103914D03*
X0161427Y0105814D03*
X0167827Y0106514D03*
X0168327Y0105914D03*
X0168427Y0105714D03*
X0168527Y0105514D03*
X0168527Y0105414D03*
X0168627Y0105314D03*
X0168627Y0105214D03*
X0168727Y0105014D03*
X0168827Y0104814D03*
X0168827Y0104714D03*
X0168827Y0104614D03*
X0168927Y0104414D03*
X0168927Y0104314D03*
X0168927Y0104214D03*
X0168927Y0103814D03*
X0171427Y0105714D03*
D51*
X0119027Y0103914D03*
D52*
X0118927Y0104014D03*
D53*
X0118777Y0104114D03*
D54*
X0118677Y0104214D03*
X0118577Y0104314D03*
D55*
X0118527Y0104414D03*
D56*
X0140327Y0104614D03*
X0140327Y0104714D03*
X0140427Y0104814D03*
X0140527Y0105014D03*
X0140627Y0105114D03*
X0140627Y0105214D03*
X0140727Y0105314D03*
X0140727Y0105414D03*
X0140827Y0105514D03*
X0140827Y0105614D03*
X0158527Y0104814D03*
X0160527Y0104414D03*
X0161427Y0104714D03*
D57*
X0118377Y0104514D03*
D58*
X0118327Y0104614D03*
X0118227Y0104714D03*
D59*
X0118177Y0104814D03*
D60*
X0118127Y0104914D03*
X0118027Y0105014D03*
X0117927Y0105214D03*
D61*
X0127277Y0106514D03*
X0127477Y0105314D03*
X0127577Y0105014D03*
X0140977Y0106514D03*
X0145877Y0106514D03*
X0145977Y0105614D03*
X0151777Y0106514D03*
X0157777Y0105714D03*
X0161377Y0105714D03*
X0161377Y0105614D03*
X0168677Y0105114D03*
X0168777Y0104914D03*
D62*
X0172927Y0105514D03*
X0173027Y0105214D03*
X0173127Y0105014D03*
X0134927Y0105014D03*
X0134827Y0105214D03*
X0134727Y0105514D03*
D63*
X0117977Y0105114D03*
X0117877Y0105314D03*
X0117777Y0105414D03*
D64*
X0134677Y0105614D03*
X0134777Y0105414D03*
X0134777Y0105314D03*
X0134877Y0105114D03*
X0172877Y0105614D03*
X0172977Y0105414D03*
X0172977Y0105314D03*
X0173077Y0105114D03*
D65*
X0161377Y0106514D03*
X0157277Y0106414D03*
X0157177Y0106514D03*
D66*
X0157077Y0106714D03*
X0156977Y0106814D03*
X0161377Y0106814D03*
D67*
X0119077Y0107514D03*
X0119077Y0107614D03*
D68*
X0177827Y0108414D03*
X0177927Y0108314D03*
X0177927Y0108214D03*
X0178027Y0108014D03*
X0178027Y0107914D03*
X0178127Y0107714D03*
X0178127Y0107614D03*
X0178227Y0107514D03*
D69*
X0119027Y0107714D03*
X0119027Y0107814D03*
X0119027Y0107914D03*
D70*
X0177977Y0108114D03*
X0178077Y0107814D03*
D71*
X0118977Y0108014D03*
X0118977Y0108114D03*
D72*
X0118927Y0108214D03*
D73*
X0118977Y0108314D03*
X0118977Y0108414D03*
D74*
X0148927Y0108514D03*
X0148927Y0108614D03*
D75*
X0148927Y0108714D03*
D76*
X0148977Y0108814D03*
D77*
X0149027Y0108914D03*
D78*
X0149077Y0109014D03*
D79*
X0149127Y0109114D03*
M02*
