G75*
%MOIN*%
%OFA0B0*%
%FSLAX25Y25*%
%IPPOS*%
%LPD*%
%AMOC8*
5,1,8,0,0,1.08239X$1,22.5*
%
%ADD10C,0.00394*%
D10*
X0032120Y0049542D02*
X0055921Y0049542D01*
X0055887Y0049554D02*
X0055787Y0049554D01*
X0055887Y0049554D02*
X0055998Y0049556D01*
X0056110Y0049562D01*
X0056220Y0049571D01*
X0056331Y0049585D01*
X0056441Y0049602D01*
X0056550Y0049624D01*
X0056659Y0049649D01*
X0056766Y0049678D01*
X0056873Y0049710D01*
X0056978Y0049746D01*
X0057082Y0049786D01*
X0057184Y0049830D01*
X0057285Y0049877D01*
X0057385Y0049927D01*
X0057482Y0049981D01*
X0057577Y0050039D01*
X0057671Y0050099D01*
X0057762Y0050163D01*
X0057851Y0050230D01*
X0057937Y0050300D01*
X0058022Y0050373D01*
X0058103Y0050449D01*
X0058182Y0050528D01*
X0058258Y0050609D01*
X0058331Y0050694D01*
X0058401Y0050780D01*
X0058468Y0050869D01*
X0058532Y0050960D01*
X0058592Y0051054D01*
X0058650Y0051149D01*
X0058704Y0051246D01*
X0058754Y0051346D01*
X0058801Y0051447D01*
X0058845Y0051549D01*
X0058885Y0051653D01*
X0058921Y0051758D01*
X0058953Y0051865D01*
X0058982Y0051972D01*
X0059007Y0052081D01*
X0059029Y0052190D01*
X0059046Y0052300D01*
X0059060Y0052411D01*
X0059069Y0052521D01*
X0059075Y0052633D01*
X0059077Y0052744D01*
X0059070Y0052653D02*
X0059070Y0077653D01*
X0059077Y0077654D02*
X0059078Y0077773D01*
X0059083Y0077892D01*
X0059092Y0078011D01*
X0059105Y0078130D01*
X0059122Y0078248D01*
X0059142Y0078365D01*
X0059166Y0078482D01*
X0059194Y0078598D01*
X0059225Y0078713D01*
X0059260Y0078827D01*
X0059299Y0078940D01*
X0059341Y0079051D01*
X0059387Y0079161D01*
X0059437Y0079270D01*
X0059490Y0079377D01*
X0059546Y0079482D01*
X0059606Y0079585D01*
X0059668Y0079687D01*
X0059735Y0079786D01*
X0059804Y0079883D01*
X0059876Y0079978D01*
X0059951Y0080070D01*
X0060030Y0080160D01*
X0060111Y0080248D01*
X0060195Y0080332D01*
X0060281Y0080414D01*
X0060370Y0080494D01*
X0060462Y0080570D01*
X0060556Y0080643D01*
X0060652Y0080714D01*
X0060751Y0080781D01*
X0060852Y0080845D01*
X0060954Y0080905D01*
X0061059Y0080963D01*
X0061165Y0081017D01*
X0061273Y0081067D01*
X0061382Y0081115D01*
X0061493Y0081158D01*
X0061606Y0081198D01*
X0061719Y0081235D01*
X0061834Y0081267D01*
X0061950Y0081296D01*
X0062066Y0081322D01*
X0062184Y0081343D01*
X0062301Y0081361D01*
X0062420Y0081375D01*
X0062539Y0081385D01*
X0062658Y0081391D01*
X0062777Y0081394D01*
X0063267Y0081394D01*
X0062810Y0081393D02*
X0099070Y0081393D01*
X0099047Y0081394D02*
X0099131Y0081396D01*
X0099215Y0081402D01*
X0099299Y0081412D01*
X0099383Y0081426D01*
X0099465Y0081443D01*
X0099547Y0081464D01*
X0099627Y0081489D01*
X0099707Y0081517D01*
X0099785Y0081549D01*
X0099862Y0081585D01*
X0099937Y0081623D01*
X0100010Y0081665D01*
X0100081Y0081711D01*
X0100150Y0081759D01*
X0100217Y0081810D01*
X0100281Y0081865D01*
X0100343Y0081922D01*
X0100403Y0081982D01*
X0100459Y0082045D01*
X0100513Y0082110D01*
X0100564Y0082177D01*
X0100611Y0082247D01*
X0100656Y0082318D01*
X0100697Y0082392D01*
X0100735Y0082467D01*
X0100770Y0082544D01*
X0100801Y0082623D01*
X0100828Y0082703D01*
X0100852Y0082783D01*
X0100872Y0082865D01*
X0100889Y0082948D01*
X0100901Y0083032D01*
X0100910Y0083115D01*
X0100916Y0083200D01*
X0100917Y0083284D01*
X0100917Y0083544D01*
X0100921Y0083283D02*
X0100921Y0090802D01*
X0100927Y0090844D02*
X0100937Y0090584D01*
X0100927Y0090844D02*
X0100923Y0090941D01*
X0100916Y0091038D01*
X0100905Y0091135D01*
X0100890Y0091231D01*
X0100871Y0091327D01*
X0100849Y0091422D01*
X0100823Y0091516D01*
X0100793Y0091608D01*
X0100760Y0091700D01*
X0100723Y0091790D01*
X0100682Y0091878D01*
X0100638Y0091965D01*
X0100591Y0092051D01*
X0100540Y0092134D01*
X0100487Y0092215D01*
X0100430Y0092294D01*
X0100370Y0092371D01*
X0100307Y0092445D01*
X0100241Y0092517D01*
X0100172Y0092586D01*
X0100101Y0092652D01*
X0100027Y0092716D01*
X0099951Y0092776D01*
X0099872Y0092834D01*
X0099791Y0092888D01*
X0099709Y0092939D01*
X0099624Y0092987D01*
X0099537Y0093032D01*
X0099449Y0093073D01*
X0099359Y0093110D01*
X0099268Y0093144D01*
X0099175Y0093175D01*
X0099082Y0093201D01*
X0098987Y0093224D01*
X0098892Y0093244D01*
X0098795Y0093259D01*
X0098699Y0093271D01*
X0098602Y0093279D01*
X0098504Y0093283D01*
X0098407Y0093284D01*
X0098440Y0093283D02*
X0087810Y0093283D01*
X0087787Y0093274D02*
X0087703Y0093276D01*
X0087619Y0093282D01*
X0087536Y0093291D01*
X0087453Y0093304D01*
X0087371Y0093321D01*
X0087290Y0093341D01*
X0087209Y0093366D01*
X0087130Y0093393D01*
X0087052Y0093424D01*
X0086976Y0093459D01*
X0086901Y0093497D01*
X0086828Y0093539D01*
X0086757Y0093583D01*
X0086688Y0093631D01*
X0086621Y0093682D01*
X0086557Y0093736D01*
X0086495Y0093792D01*
X0086435Y0093852D01*
X0086379Y0093914D01*
X0086325Y0093978D01*
X0086274Y0094045D01*
X0086226Y0094114D01*
X0086182Y0094185D01*
X0086140Y0094258D01*
X0086102Y0094333D01*
X0086067Y0094409D01*
X0086036Y0094487D01*
X0086009Y0094566D01*
X0085984Y0094647D01*
X0085964Y0094728D01*
X0085947Y0094810D01*
X0085934Y0094893D01*
X0085925Y0094976D01*
X0085919Y0095060D01*
X0085917Y0095144D01*
X0085917Y0095314D01*
X0085921Y0095172D02*
X0085921Y0101382D01*
X0085927Y0101434D02*
X0085929Y0101479D01*
X0085935Y0101525D01*
X0085944Y0101569D01*
X0085957Y0101613D01*
X0085973Y0101655D01*
X0085993Y0101696D01*
X0086017Y0101735D01*
X0086043Y0101772D01*
X0086072Y0101807D01*
X0086104Y0101839D01*
X0086139Y0101868D01*
X0086176Y0101894D01*
X0086215Y0101918D01*
X0086256Y0101938D01*
X0086298Y0101954D01*
X0086342Y0101967D01*
X0086386Y0101976D01*
X0086432Y0101982D01*
X0086477Y0101984D01*
X0086707Y0101984D01*
X0086550Y0102012D02*
X0089700Y0102012D01*
X0089721Y0102013D02*
X0099700Y0102023D01*
X0099737Y0102034D02*
X0099803Y0102036D01*
X0099869Y0102041D01*
X0099935Y0102051D01*
X0100000Y0102064D01*
X0100064Y0102080D01*
X0100127Y0102100D01*
X0100189Y0102124D01*
X0100249Y0102151D01*
X0100308Y0102181D01*
X0100365Y0102215D01*
X0100420Y0102252D01*
X0100473Y0102291D01*
X0100523Y0102334D01*
X0100571Y0102380D01*
X0100617Y0102428D01*
X0100660Y0102478D01*
X0100699Y0102531D01*
X0100736Y0102586D01*
X0100770Y0102643D01*
X0100800Y0102702D01*
X0100827Y0102762D01*
X0100851Y0102824D01*
X0100871Y0102887D01*
X0100887Y0102951D01*
X0100900Y0103016D01*
X0100910Y0103082D01*
X0100915Y0103148D01*
X0100917Y0103214D01*
X0100917Y0103364D01*
X0100921Y0103283D02*
X0100921Y0113283D01*
X0100917Y0113204D02*
X0100917Y0113404D01*
X0100914Y0113469D01*
X0100907Y0113534D01*
X0100897Y0113598D01*
X0100883Y0113662D01*
X0100866Y0113724D01*
X0100845Y0113786D01*
X0100821Y0113846D01*
X0100793Y0113905D01*
X0100762Y0113963D01*
X0100728Y0114018D01*
X0100691Y0114071D01*
X0100651Y0114123D01*
X0100608Y0114172D01*
X0100563Y0114218D01*
X0100515Y0114262D01*
X0100465Y0114303D01*
X0100412Y0114341D01*
X0100357Y0114377D01*
X0100301Y0114409D01*
X0100242Y0114438D01*
X0100182Y0114463D01*
X0100121Y0114485D01*
X0100059Y0114504D01*
X0099996Y0114519D01*
X0099932Y0114531D01*
X0099867Y0114539D01*
X0099802Y0114543D01*
X0099737Y0114544D01*
X0099700Y0114542D02*
X0082180Y0114542D01*
X0082257Y0114554D02*
X0081567Y0114554D01*
X0081484Y0114556D01*
X0081400Y0114561D01*
X0081317Y0114571D01*
X0081235Y0114584D01*
X0081153Y0114601D01*
X0081072Y0114621D01*
X0080992Y0114645D01*
X0080913Y0114673D01*
X0080836Y0114704D01*
X0080760Y0114738D01*
X0080686Y0114776D01*
X0080613Y0114817D01*
X0080542Y0114862D01*
X0080474Y0114909D01*
X0080407Y0114960D01*
X0080343Y0115013D01*
X0080282Y0115070D01*
X0080223Y0115129D01*
X0080166Y0115190D01*
X0080113Y0115254D01*
X0080062Y0115321D01*
X0080015Y0115389D01*
X0079970Y0115460D01*
X0079929Y0115533D01*
X0079891Y0115607D01*
X0079857Y0115683D01*
X0079826Y0115760D01*
X0079798Y0115839D01*
X0079774Y0115919D01*
X0079754Y0116000D01*
X0079737Y0116082D01*
X0079724Y0116164D01*
X0079714Y0116247D01*
X0079709Y0116331D01*
X0079707Y0116414D01*
X0079700Y0116393D02*
X0079610Y0124374D01*
X0079587Y0124444D02*
X0079587Y0124864D01*
X0079589Y0124937D01*
X0079595Y0125009D01*
X0079604Y0125081D01*
X0079617Y0125153D01*
X0079634Y0125224D01*
X0079655Y0125294D01*
X0079679Y0125362D01*
X0079707Y0125429D01*
X0079739Y0125495D01*
X0079773Y0125559D01*
X0079811Y0125621D01*
X0079852Y0125681D01*
X0079897Y0125739D01*
X0079944Y0125794D01*
X0079994Y0125847D01*
X0080047Y0125897D01*
X0080102Y0125944D01*
X0080160Y0125989D01*
X0080220Y0126030D01*
X0080282Y0126068D01*
X0080346Y0126102D01*
X0080412Y0126134D01*
X0080479Y0126162D01*
X0080547Y0126186D01*
X0080617Y0126207D01*
X0080688Y0126224D01*
X0080760Y0126237D01*
X0080832Y0126246D01*
X0080904Y0126252D01*
X0080977Y0126254D01*
X0080831Y0126225D02*
X0108350Y0126213D01*
X0115831Y0126213D01*
X0115800Y0126203D02*
X0116276Y0126208D01*
X0116276Y0126207D02*
X0116350Y0126206D01*
X0116425Y0126209D01*
X0116500Y0126215D01*
X0116574Y0126226D01*
X0116647Y0126240D01*
X0116720Y0126258D01*
X0116791Y0126279D01*
X0116862Y0126304D01*
X0116931Y0126333D01*
X0116998Y0126365D01*
X0117064Y0126400D01*
X0117128Y0126439D01*
X0117190Y0126480D01*
X0117250Y0126525D01*
X0117307Y0126573D01*
X0117362Y0126624D01*
X0117414Y0126677D01*
X0117463Y0126734D01*
X0117510Y0126792D01*
X0117554Y0126853D01*
X0117594Y0126916D01*
X0117631Y0126980D01*
X0117665Y0127047D01*
X0117695Y0127115D01*
X0117722Y0127185D01*
X0117745Y0127256D01*
X0117765Y0127328D01*
X0117781Y0127401D01*
X0117794Y0127475D01*
X0117802Y0127549D01*
X0117807Y0127624D01*
X0117810Y0127653D02*
X0117877Y0136735D01*
X0117887Y0136774D02*
X0117885Y0136861D01*
X0117879Y0136948D01*
X0117869Y0137034D01*
X0117856Y0137120D01*
X0117838Y0137206D01*
X0117817Y0137290D01*
X0117792Y0137373D01*
X0117763Y0137456D01*
X0117731Y0137536D01*
X0117695Y0137616D01*
X0117655Y0137693D01*
X0117612Y0137769D01*
X0117566Y0137843D01*
X0117516Y0137914D01*
X0117464Y0137984D01*
X0117408Y0138050D01*
X0117349Y0138115D01*
X0117288Y0138176D01*
X0117223Y0138235D01*
X0117157Y0138291D01*
X0117087Y0138343D01*
X0117016Y0138393D01*
X0116942Y0138439D01*
X0116866Y0138482D01*
X0116789Y0138522D01*
X0116709Y0138558D01*
X0116629Y0138590D01*
X0116546Y0138619D01*
X0116463Y0138644D01*
X0116379Y0138665D01*
X0116293Y0138683D01*
X0116207Y0138696D01*
X0116121Y0138706D01*
X0116034Y0138712D01*
X0115947Y0138714D01*
X0115217Y0138714D01*
X0115181Y0138712D02*
X0078770Y0138812D01*
X0078907Y0138814D02*
X0077567Y0138814D01*
X0077456Y0138816D01*
X0077346Y0138822D01*
X0077236Y0138831D01*
X0077126Y0138845D01*
X0077017Y0138862D01*
X0076908Y0138883D01*
X0076800Y0138908D01*
X0076693Y0138937D01*
X0076587Y0138969D01*
X0076483Y0139005D01*
X0076379Y0139045D01*
X0076278Y0139088D01*
X0076177Y0139135D01*
X0076079Y0139185D01*
X0075982Y0139239D01*
X0075887Y0139296D01*
X0075794Y0139356D01*
X0075704Y0139419D01*
X0075615Y0139486D01*
X0075529Y0139556D01*
X0075446Y0139628D01*
X0075365Y0139704D01*
X0075287Y0139782D01*
X0075211Y0139863D01*
X0075139Y0139946D01*
X0075069Y0140032D01*
X0075002Y0140121D01*
X0074939Y0140211D01*
X0074879Y0140304D01*
X0074822Y0140399D01*
X0074768Y0140496D01*
X0074718Y0140594D01*
X0074671Y0140695D01*
X0074628Y0140796D01*
X0074588Y0140900D01*
X0074552Y0141004D01*
X0074520Y0141110D01*
X0074491Y0141217D01*
X0074466Y0141325D01*
X0074445Y0141434D01*
X0074428Y0141543D01*
X0074414Y0141653D01*
X0074405Y0141763D01*
X0074399Y0141873D01*
X0074397Y0141984D01*
X0074377Y0142004D02*
X0074377Y0172104D01*
X0074397Y0172184D02*
X0074395Y0172263D01*
X0074389Y0172341D01*
X0074380Y0172419D01*
X0074366Y0172496D01*
X0074349Y0172573D01*
X0074328Y0172648D01*
X0074303Y0172723D01*
X0074275Y0172796D01*
X0074243Y0172868D01*
X0074208Y0172938D01*
X0074169Y0173007D01*
X0074127Y0173073D01*
X0074082Y0173137D01*
X0074034Y0173199D01*
X0073983Y0173258D01*
X0073928Y0173315D01*
X0073871Y0173370D01*
X0073812Y0173421D01*
X0073750Y0173469D01*
X0073686Y0173514D01*
X0073620Y0173556D01*
X0073551Y0173595D01*
X0073481Y0173630D01*
X0073409Y0173662D01*
X0073336Y0173690D01*
X0073261Y0173715D01*
X0073186Y0173736D01*
X0073109Y0173753D01*
X0073032Y0173767D01*
X0072954Y0173776D01*
X0072876Y0173782D01*
X0072797Y0173784D01*
X0072697Y0173784D01*
X0072677Y0173804D02*
X0017877Y0173804D01*
X0017882Y0173819D02*
X0017801Y0173821D01*
X0017721Y0173826D01*
X0017640Y0173836D01*
X0017560Y0173849D01*
X0017481Y0173865D01*
X0017403Y0173886D01*
X0017326Y0173910D01*
X0017250Y0173937D01*
X0017175Y0173968D01*
X0017102Y0174002D01*
X0017030Y0174040D01*
X0016961Y0174081D01*
X0016893Y0174125D01*
X0016827Y0174172D01*
X0016764Y0174223D01*
X0016703Y0174276D01*
X0016645Y0174332D01*
X0016589Y0174390D01*
X0016536Y0174451D01*
X0016485Y0174514D01*
X0016438Y0174580D01*
X0016394Y0174648D01*
X0016353Y0174717D01*
X0016315Y0174789D01*
X0016281Y0174862D01*
X0016250Y0174937D01*
X0016223Y0175013D01*
X0016199Y0175090D01*
X0016178Y0175168D01*
X0016162Y0175247D01*
X0016149Y0175327D01*
X0016139Y0175408D01*
X0016134Y0175488D01*
X0016132Y0175569D01*
X0016121Y0175393D02*
X0015921Y0184542D01*
X0015947Y0184444D02*
X0015945Y0184514D01*
X0015940Y0184584D01*
X0015931Y0184654D01*
X0015918Y0184723D01*
X0015901Y0184791D01*
X0015881Y0184858D01*
X0015858Y0184924D01*
X0015831Y0184989D01*
X0015801Y0185052D01*
X0015767Y0185114D01*
X0015731Y0185174D01*
X0015691Y0185232D01*
X0015648Y0185287D01*
X0015603Y0185341D01*
X0015555Y0185392D01*
X0015504Y0185440D01*
X0015450Y0185485D01*
X0015395Y0185528D01*
X0015337Y0185568D01*
X0015277Y0185604D01*
X0015215Y0185638D01*
X0015152Y0185668D01*
X0015087Y0185695D01*
X0015021Y0185718D01*
X0014954Y0185738D01*
X0014886Y0185755D01*
X0014817Y0185768D01*
X0014747Y0185777D01*
X0014677Y0185782D01*
X0014607Y0185784D01*
X0014247Y0185784D01*
X0014700Y0185763D02*
X0006921Y0185763D01*
X0007067Y0185754D02*
X0005667Y0185734D01*
X0005701Y0185732D02*
X0003180Y0185782D01*
X0003227Y0185774D02*
X0003138Y0185772D01*
X0003050Y0185766D01*
X0002962Y0185757D01*
X0002874Y0185743D01*
X0002788Y0185726D01*
X0002702Y0185705D01*
X0002617Y0185680D01*
X0002533Y0185652D01*
X0002450Y0185619D01*
X0002369Y0185584D01*
X0002290Y0185545D01*
X0002212Y0185502D01*
X0002136Y0185456D01*
X0002063Y0185407D01*
X0001991Y0185355D01*
X0001922Y0185299D01*
X0001856Y0185241D01*
X0001792Y0185179D01*
X0001730Y0185115D01*
X0001672Y0185049D01*
X0001616Y0184980D01*
X0001564Y0184908D01*
X0001515Y0184835D01*
X0001469Y0184759D01*
X0001426Y0184681D01*
X0001387Y0184602D01*
X0001352Y0184521D01*
X0001319Y0184438D01*
X0001291Y0184354D01*
X0001266Y0184269D01*
X0001245Y0184183D01*
X0001228Y0184097D01*
X0001214Y0184009D01*
X0001205Y0183921D01*
X0001199Y0183833D01*
X0001197Y0183744D01*
X0001197Y0182784D01*
X0001198Y0182768D02*
X0001258Y0149727D01*
X0001267Y0151244D02*
X0001267Y0151704D01*
X0001260Y0151253D02*
X0001320Y0079432D01*
X0001317Y0079494D02*
X0001317Y0079604D01*
X0001317Y0079494D02*
X0001319Y0079396D01*
X0001325Y0079297D01*
X0001334Y0079199D01*
X0001347Y0079102D01*
X0001364Y0079005D01*
X0001385Y0078908D01*
X0001409Y0078813D01*
X0001437Y0078719D01*
X0001468Y0078625D01*
X0001503Y0078533D01*
X0001542Y0078443D01*
X0001584Y0078354D01*
X0001629Y0078266D01*
X0001678Y0078181D01*
X0001730Y0078097D01*
X0001785Y0078015D01*
X0001843Y0077936D01*
X0001904Y0077859D01*
X0001968Y0077784D01*
X0002035Y0077712D01*
X0002105Y0077642D01*
X0002177Y0077575D01*
X0002252Y0077511D01*
X0002329Y0077450D01*
X0002408Y0077392D01*
X0002490Y0077337D01*
X0002574Y0077285D01*
X0002659Y0077236D01*
X0002747Y0077191D01*
X0002836Y0077149D01*
X0002926Y0077110D01*
X0003018Y0077075D01*
X0003112Y0077044D01*
X0003206Y0077016D01*
X0003301Y0076992D01*
X0003398Y0076971D01*
X0003495Y0076954D01*
X0003592Y0076941D01*
X0003690Y0076932D01*
X0003789Y0076926D01*
X0003887Y0076924D01*
X0003801Y0076913D02*
X0023901Y0076953D01*
X0024017Y0076944D02*
X0023367Y0076944D01*
X0024017Y0076944D02*
X0024138Y0076942D01*
X0024258Y0076936D01*
X0024379Y0076926D01*
X0024499Y0076912D01*
X0024618Y0076895D01*
X0024737Y0076873D01*
X0024855Y0076848D01*
X0024972Y0076818D01*
X0025088Y0076785D01*
X0025203Y0076748D01*
X0025317Y0076707D01*
X0025429Y0076663D01*
X0025540Y0076615D01*
X0025649Y0076563D01*
X0025756Y0076508D01*
X0025862Y0076450D01*
X0025966Y0076388D01*
X0026067Y0076322D01*
X0026166Y0076253D01*
X0026263Y0076181D01*
X0026358Y0076106D01*
X0026450Y0076028D01*
X0026539Y0075947D01*
X0026626Y0075863D01*
X0026710Y0075776D01*
X0026791Y0075687D01*
X0026869Y0075595D01*
X0026944Y0075500D01*
X0027016Y0075403D01*
X0027085Y0075304D01*
X0027151Y0075203D01*
X0027213Y0075099D01*
X0027271Y0074993D01*
X0027326Y0074886D01*
X0027378Y0074777D01*
X0027426Y0074666D01*
X0027470Y0074554D01*
X0027511Y0074440D01*
X0027548Y0074325D01*
X0027581Y0074209D01*
X0027611Y0074092D01*
X0027636Y0073974D01*
X0027658Y0073855D01*
X0027675Y0073736D01*
X0027689Y0073616D01*
X0027699Y0073495D01*
X0027705Y0073375D01*
X0027707Y0073254D01*
X0027680Y0073213D02*
X0027680Y0052583D01*
X0027677Y0052684D02*
X0027677Y0052914D01*
X0027677Y0052684D02*
X0027700Y0052563D01*
X0027727Y0052442D01*
X0027758Y0052323D01*
X0027792Y0052204D01*
X0027830Y0052087D01*
X0027872Y0051971D01*
X0027918Y0051856D01*
X0027967Y0051743D01*
X0028020Y0051631D01*
X0028077Y0051522D01*
X0028137Y0051414D01*
X0028200Y0051308D01*
X0028267Y0051204D01*
X0028337Y0051102D01*
X0028410Y0051003D01*
X0028487Y0050906D01*
X0028566Y0050812D01*
X0028649Y0050720D01*
X0028734Y0050631D01*
X0028822Y0050544D01*
X0028913Y0050461D01*
X0029007Y0050380D01*
X0029103Y0050303D01*
X0029202Y0050228D01*
X0029302Y0050157D01*
X0029406Y0050089D01*
X0029511Y0050025D01*
X0029618Y0049964D01*
X0029727Y0049906D01*
X0029838Y0049852D01*
X0029951Y0049801D01*
X0030065Y0049754D01*
X0030180Y0049711D01*
X0030297Y0049671D01*
X0030416Y0049636D01*
X0030535Y0049604D01*
X0030655Y0049576D01*
X0030776Y0049551D01*
X0030898Y0049531D01*
X0031020Y0049515D01*
X0031143Y0049502D01*
X0031266Y0049494D01*
X0031389Y0049489D01*
X0031513Y0049488D01*
X0031636Y0049492D01*
X0031760Y0049499D01*
X0031882Y0049510D01*
X0032005Y0049525D01*
X0032127Y0049544D01*
X0036687Y0157464D02*
X0046267Y0157534D01*
X0046352Y0157536D01*
X0046437Y0157542D01*
X0046522Y0157551D01*
X0046606Y0157565D01*
X0046690Y0157582D01*
X0046772Y0157602D01*
X0046854Y0157627D01*
X0046935Y0157655D01*
X0047014Y0157687D01*
X0047091Y0157722D01*
X0047167Y0157761D01*
X0047242Y0157803D01*
X0047314Y0157848D01*
X0047384Y0157897D01*
X0047452Y0157949D01*
X0047517Y0158003D01*
X0047580Y0158061D01*
X0047640Y0158121D01*
X0047698Y0158184D01*
X0047752Y0158249D01*
X0047804Y0158317D01*
X0047853Y0158387D01*
X0047898Y0158459D01*
X0047940Y0158534D01*
X0047979Y0158610D01*
X0048014Y0158687D01*
X0048046Y0158766D01*
X0048074Y0158847D01*
X0048099Y0158929D01*
X0048119Y0159011D01*
X0048136Y0159095D01*
X0048150Y0159179D01*
X0048159Y0159264D01*
X0048165Y0159349D01*
X0048167Y0159434D01*
X0048117Y0166284D01*
X0048115Y0166354D01*
X0048109Y0166425D01*
X0048100Y0166494D01*
X0048087Y0166563D01*
X0048070Y0166632D01*
X0048049Y0166699D01*
X0048025Y0166765D01*
X0047997Y0166830D01*
X0047966Y0166893D01*
X0047931Y0166954D01*
X0047893Y0167014D01*
X0047852Y0167071D01*
X0047808Y0167126D01*
X0047761Y0167178D01*
X0047711Y0167228D01*
X0047659Y0167275D01*
X0047604Y0167319D01*
X0047547Y0167360D01*
X0047487Y0167398D01*
X0047426Y0167433D01*
X0047363Y0167464D01*
X0047298Y0167492D01*
X0047232Y0167516D01*
X0047165Y0167537D01*
X0047096Y0167554D01*
X0047027Y0167567D01*
X0046958Y0167576D01*
X0046887Y0167582D01*
X0046817Y0167584D01*
X0036387Y0167584D01*
X0036387Y0167583D02*
X0036311Y0167578D01*
X0036234Y0167568D01*
X0036159Y0167555D01*
X0036084Y0167538D01*
X0036009Y0167517D01*
X0035937Y0167493D01*
X0035865Y0167464D01*
X0035795Y0167433D01*
X0035727Y0167397D01*
X0035660Y0167359D01*
X0035596Y0167316D01*
X0035534Y0167271D01*
X0035474Y0167223D01*
X0035417Y0167172D01*
X0035362Y0167117D01*
X0035310Y0167060D01*
X0035261Y0167001D01*
X0035216Y0166939D01*
X0035173Y0166875D01*
X0035134Y0166809D01*
X0035098Y0166741D01*
X0035065Y0166671D01*
X0035037Y0166600D01*
X0035011Y0166527D01*
X0034990Y0166454D01*
X0034972Y0166379D01*
X0034958Y0166303D01*
X0034948Y0166227D01*
X0034942Y0166150D01*
X0034940Y0166073D01*
X0034942Y0165996D01*
X0034947Y0165974D02*
X0034987Y0159164D01*
X0034989Y0159083D01*
X0034995Y0159002D01*
X0035004Y0158922D01*
X0035018Y0158842D01*
X0035035Y0158763D01*
X0035056Y0158685D01*
X0035080Y0158608D01*
X0035109Y0158532D01*
X0035141Y0158458D01*
X0035176Y0158385D01*
X0035215Y0158314D01*
X0035257Y0158245D01*
X0035302Y0158178D01*
X0035351Y0158113D01*
X0035402Y0158051D01*
X0035457Y0157991D01*
X0035514Y0157934D01*
X0035574Y0157879D01*
X0035636Y0157828D01*
X0035701Y0157779D01*
X0035768Y0157734D01*
X0035837Y0157692D01*
X0035908Y0157653D01*
X0035981Y0157618D01*
X0036055Y0157586D01*
X0036131Y0157557D01*
X0036208Y0157533D01*
X0036286Y0157512D01*
X0036365Y0157495D01*
X0036445Y0157481D01*
X0036525Y0157472D01*
X0036606Y0157466D01*
X0036687Y0157464D01*
M02*
