G75*
%MOIN*%
%OFA0B0*%
%FSLAX25Y25*%
%IPPOS*%
%LPD*%
%AMOC8*
5,1,8,0,0,1.08239X$1,22.5*
%
%ADD10R,0.04343X0.04343*%
%ADD11C,0.05524*%
%ADD12R,0.07887X0.07887*%
%ADD13R,0.03556X0.03556*%
%ADD14C,0.05156*%
%ADD15C,0.03778*%
D10*
X0084822Y0098440D03*
X0084822Y0099267D03*
X0093236Y0102979D03*
X0094062Y0102979D03*
X0099692Y0105218D03*
X0099682Y0105975D03*
X0093495Y0092664D03*
X0092669Y0092664D03*
X0116367Y0132675D03*
X0116367Y0133462D03*
X0068298Y0172570D03*
X0068298Y0173397D03*
X0063480Y0173397D03*
X0063480Y0172570D03*
X0058385Y0172570D03*
X0058385Y0173397D03*
X0053428Y0173538D03*
X0053428Y0172712D03*
X0036767Y0172983D03*
X0036767Y0173810D03*
X0031810Y0173810D03*
X0031810Y0172983D03*
X0022031Y0172846D03*
X0022031Y0173672D03*
X0014873Y0178260D03*
X0014873Y0179087D03*
X0022444Y0145617D03*
X0022444Y0144790D03*
X0027401Y0144790D03*
X0027401Y0145617D03*
X0032771Y0145617D03*
X0032771Y0144790D03*
X0037728Y0144790D03*
X0037728Y0145617D03*
X0048054Y0145617D03*
X0048054Y0144790D03*
X0053011Y0144790D03*
X0053011Y0145617D03*
X0058381Y0145617D03*
X0058381Y0144790D03*
X0063338Y0144790D03*
X0063338Y0145617D03*
D11*
X0032760Y0091174D03*
X0030405Y0084908D03*
X0034409Y0080555D03*
X0037250Y0086842D03*
X0052030Y0081462D03*
X0055390Y0063262D03*
D12*
X0032745Y0056061D03*
X0045765Y0055481D03*
D13*
X0112897Y0127506D03*
X0114489Y0127506D03*
D14*
X0113694Y0126211D03*
X0118295Y0133068D03*
X0101114Y0105577D03*
X0093646Y0101806D03*
X0093093Y0093868D03*
X0086193Y0098888D03*
X0068480Y0174045D03*
X0063456Y0174045D03*
X0058428Y0174045D03*
X0053401Y0174045D03*
X0036921Y0174045D03*
X0031661Y0174045D03*
X0022019Y0174045D03*
X0016471Y0178622D03*
D15*
X0046951Y0088425D03*
X0038781Y0070015D03*
X0089715Y0108355D03*
X0101961Y0133475D03*
M02*
