G75*
%MOIN*%
%OFA0B0*%
%FSLAX25Y25*%
%IPPOS*%
%LPD*%
%AMOC8*
5,1,8,0,0,1.08239X$1,22.5*
%
%ADD10C,0.00300*%
%ADD11C,0.00200*%
D10*
X0004330Y0098064D02*
X0002986Y0099409D01*
X0007020Y0099409D01*
X0007020Y0098064D02*
X0007020Y0100754D01*
X0006347Y0102052D02*
X0005003Y0102052D01*
X0005003Y0104069D01*
X0005675Y0104741D01*
X0006347Y0104741D01*
X0007020Y0104069D01*
X0007020Y0102724D01*
X0006347Y0102052D01*
X0005003Y0102052D02*
X0003658Y0103397D01*
X0002986Y0104741D01*
X0002986Y0106040D02*
X0004330Y0107384D01*
X0002986Y0108729D01*
X0007020Y0108729D01*
X0007020Y0110027D02*
X0007020Y0112044D01*
X0006347Y0112717D01*
X0005675Y0112717D01*
X0005003Y0112044D01*
X0005003Y0110027D01*
X0007020Y0110027D02*
X0002986Y0110027D01*
X0002986Y0112044D01*
X0003658Y0112717D01*
X0004330Y0112717D01*
X0005003Y0112044D01*
X0007020Y0106040D02*
X0002986Y0106040D01*
X0003658Y0118003D02*
X0006347Y0118003D01*
X0007020Y0118675D01*
X0007020Y0120020D01*
X0006347Y0120692D01*
X0006347Y0121990D02*
X0005003Y0121990D01*
X0004330Y0122663D01*
X0004330Y0124007D01*
X0005003Y0124680D01*
X0006347Y0124680D01*
X0007020Y0124007D01*
X0007020Y0122663D01*
X0006347Y0121990D01*
X0005675Y0125978D02*
X0004330Y0127323D01*
X0004330Y0127995D01*
X0005003Y0129301D02*
X0006347Y0129301D01*
X0007020Y0129973D01*
X0007020Y0131318D01*
X0006347Y0131990D01*
X0005003Y0131990D01*
X0004330Y0131318D01*
X0004330Y0129973D01*
X0005003Y0129301D01*
X0004330Y0133289D02*
X0004330Y0135306D01*
X0005003Y0135978D01*
X0007020Y0135978D01*
X0006347Y0137276D02*
X0005675Y0137949D01*
X0005675Y0139966D01*
X0005003Y0139966D02*
X0007020Y0139966D01*
X0007020Y0137949D01*
X0006347Y0137276D01*
X0004330Y0137949D02*
X0004330Y0139293D01*
X0005003Y0139966D01*
X0005003Y0145252D02*
X0005003Y0147941D01*
X0004330Y0147941D02*
X0007020Y0147941D01*
X0006347Y0149239D02*
X0005003Y0149239D01*
X0004330Y0149912D01*
X0004330Y0151929D01*
X0002986Y0151929D02*
X0007020Y0151929D01*
X0007020Y0149912D01*
X0006347Y0149239D01*
X0004330Y0147941D02*
X0002986Y0146596D01*
X0004330Y0145252D01*
X0007020Y0145252D01*
X0006347Y0153227D02*
X0005675Y0153899D01*
X0005675Y0155916D01*
X0005003Y0155916D02*
X0007020Y0155916D01*
X0007020Y0153899D01*
X0006347Y0153227D01*
X0004330Y0153899D02*
X0004330Y0155244D01*
X0005003Y0155916D01*
X0004330Y0157215D02*
X0004330Y0159232D01*
X0005003Y0159904D01*
X0006347Y0159904D01*
X0007020Y0159232D01*
X0007020Y0157215D01*
X0008365Y0157215D02*
X0004330Y0157215D01*
X0004330Y0161202D02*
X0004330Y0162547D01*
X0003658Y0161875D02*
X0006347Y0161875D01*
X0007020Y0162547D01*
X0006347Y0163861D02*
X0005003Y0163861D01*
X0004330Y0164533D01*
X0004330Y0165878D01*
X0005003Y0166550D01*
X0005675Y0166550D01*
X0005675Y0163861D01*
X0006347Y0163861D02*
X0007020Y0164533D01*
X0007020Y0165878D01*
X0007020Y0167848D02*
X0004330Y0167848D01*
X0004330Y0169193D02*
X0004330Y0169865D01*
X0004330Y0169193D02*
X0005675Y0167848D01*
X0021888Y0139362D02*
X0023339Y0139362D01*
X0023823Y0138878D01*
X0023823Y0138394D01*
X0023339Y0137911D01*
X0021888Y0137911D01*
X0021888Y0139362D02*
X0021888Y0136459D01*
X0023339Y0136459D01*
X0023823Y0136943D01*
X0023823Y0137427D01*
X0023339Y0137911D01*
X0024834Y0138394D02*
X0024834Y0136943D01*
X0025318Y0136459D01*
X0026769Y0136459D01*
X0026769Y0135976D02*
X0026769Y0138394D01*
X0027781Y0138394D02*
X0027781Y0137911D01*
X0028265Y0137911D01*
X0028265Y0138394D01*
X0027781Y0138394D01*
X0027781Y0136943D02*
X0027781Y0136459D01*
X0028265Y0136459D01*
X0028265Y0136943D01*
X0027781Y0136943D01*
X0026769Y0135976D02*
X0026286Y0135492D01*
X0025802Y0135492D01*
X0032201Y0136459D02*
X0034136Y0136459D01*
X0035147Y0136459D02*
X0036115Y0136459D01*
X0035631Y0136459D02*
X0035631Y0139362D01*
X0035147Y0139362D01*
X0034136Y0139362D02*
X0032201Y0139362D01*
X0032201Y0136459D01*
X0032201Y0137911D02*
X0033168Y0137911D01*
X0037112Y0137911D02*
X0037595Y0138394D01*
X0038563Y0138394D01*
X0039047Y0137911D01*
X0039047Y0137427D01*
X0037112Y0137427D01*
X0037112Y0136943D02*
X0037112Y0137911D01*
X0037112Y0136943D02*
X0037595Y0136459D01*
X0038563Y0136459D01*
X0040058Y0136459D02*
X0040058Y0138394D01*
X0040542Y0138394D01*
X0041026Y0137911D01*
X0041509Y0138394D01*
X0041993Y0137911D01*
X0041993Y0136459D01*
X0041026Y0136459D02*
X0041026Y0137911D01*
X0043005Y0137911D02*
X0043488Y0138394D01*
X0044456Y0138394D01*
X0044940Y0137911D01*
X0044940Y0137427D01*
X0043005Y0137427D01*
X0043005Y0136943D02*
X0043005Y0137911D01*
X0043005Y0136943D02*
X0043488Y0136459D01*
X0044456Y0136459D01*
X0045951Y0136459D02*
X0045951Y0138394D01*
X0047402Y0138394D01*
X0047886Y0137911D01*
X0047886Y0136459D01*
X0049381Y0136943D02*
X0049381Y0138878D01*
X0048898Y0138394D02*
X0049865Y0138394D01*
X0050862Y0138394D02*
X0051830Y0139362D01*
X0051830Y0136459D01*
X0052797Y0136459D02*
X0050862Y0136459D01*
X0049865Y0136459D02*
X0049381Y0136943D01*
X0053809Y0136943D02*
X0053809Y0137427D01*
X0054292Y0137911D01*
X0055260Y0137911D01*
X0055744Y0137427D01*
X0055744Y0136943D01*
X0055260Y0136459D01*
X0054292Y0136459D01*
X0053809Y0136943D01*
X0054292Y0137911D02*
X0053809Y0138394D01*
X0053809Y0138878D01*
X0054292Y0139362D01*
X0055260Y0139362D01*
X0055744Y0138878D01*
X0055744Y0138394D01*
X0055260Y0137911D01*
X0056755Y0137911D02*
X0056755Y0139362D01*
X0058690Y0139362D01*
X0058206Y0138394D02*
X0058690Y0137911D01*
X0058690Y0136943D01*
X0058206Y0136459D01*
X0057239Y0136459D01*
X0056755Y0136943D01*
X0056755Y0137911D02*
X0057723Y0138394D01*
X0058206Y0138394D01*
X0059702Y0138394D02*
X0059702Y0138878D01*
X0060185Y0139362D01*
X0061153Y0139362D01*
X0061637Y0138878D01*
X0061637Y0136943D01*
X0061153Y0136459D01*
X0060185Y0136459D01*
X0059702Y0136943D01*
X0060185Y0137911D02*
X0061637Y0137911D01*
X0062648Y0138878D02*
X0063132Y0139362D01*
X0064099Y0139362D01*
X0064583Y0138878D01*
X0064583Y0138394D01*
X0062648Y0136459D01*
X0064583Y0136459D01*
X0060185Y0137911D02*
X0059702Y0138394D01*
X0059701Y0107161D02*
X0059151Y0106612D01*
X0059151Y0105513D01*
X0059701Y0104963D01*
X0060799Y0104963D01*
X0061349Y0106062D02*
X0059151Y0106062D01*
X0059701Y0107161D02*
X0060799Y0107161D01*
X0061349Y0106612D01*
X0061349Y0106062D01*
X0058040Y0104963D02*
X0056392Y0104963D01*
X0055842Y0105513D01*
X0055842Y0106612D01*
X0056392Y0107161D01*
X0058040Y0107161D01*
X0054733Y0107161D02*
X0054183Y0107161D01*
X0053085Y0106062D01*
X0053085Y0104963D02*
X0053085Y0107161D01*
X0051973Y0107161D02*
X0051973Y0104963D01*
X0050325Y0104963D01*
X0049776Y0105513D01*
X0049776Y0107161D01*
X0048664Y0106612D02*
X0048115Y0107161D01*
X0047016Y0107161D01*
X0046467Y0106612D01*
X0046467Y0105513D01*
X0047016Y0104963D01*
X0048115Y0104963D01*
X0048664Y0105513D01*
X0048664Y0106612D01*
X0045355Y0107161D02*
X0043707Y0107161D01*
X0043158Y0106612D01*
X0043707Y0106062D01*
X0044806Y0106062D01*
X0045355Y0105513D01*
X0044806Y0104963D01*
X0043158Y0104963D01*
X0042910Y0103142D02*
X0042910Y0099845D01*
X0041262Y0099845D01*
X0040712Y0100395D01*
X0040712Y0101494D01*
X0041262Y0102043D01*
X0042910Y0102043D01*
X0044021Y0102043D02*
X0044021Y0100395D01*
X0044571Y0099845D01*
X0045120Y0100395D01*
X0045670Y0099845D01*
X0046219Y0100395D01*
X0046219Y0102043D01*
X0047880Y0102043D02*
X0048979Y0102043D01*
X0049528Y0101494D01*
X0049528Y0099845D01*
X0047880Y0099845D01*
X0047330Y0100395D01*
X0047880Y0100944D01*
X0049528Y0100944D01*
X0050639Y0100944D02*
X0051738Y0102043D01*
X0052288Y0102043D01*
X0053397Y0101494D02*
X0053946Y0102043D01*
X0055045Y0102043D01*
X0055595Y0101494D01*
X0055595Y0100944D01*
X0053397Y0100944D01*
X0053397Y0100395D02*
X0053397Y0101494D01*
X0053397Y0100395D02*
X0053946Y0099845D01*
X0055045Y0099845D01*
X0050639Y0099845D02*
X0050639Y0102043D01*
X0039603Y0102043D02*
X0039054Y0102043D01*
X0037955Y0100944D01*
X0037955Y0099845D02*
X0037955Y0102043D01*
X0036843Y0101494D02*
X0036843Y0099845D01*
X0035195Y0099845D01*
X0034646Y0100395D01*
X0035195Y0100944D01*
X0036843Y0100944D01*
X0036843Y0101494D02*
X0036294Y0102043D01*
X0035195Y0102043D01*
X0033534Y0101494D02*
X0033534Y0099845D01*
X0033534Y0101494D02*
X0032985Y0102043D01*
X0031886Y0102043D01*
X0031337Y0101494D01*
X0031337Y0103142D02*
X0031337Y0099845D01*
X0029921Y0103865D02*
X0029921Y0107161D01*
X0031570Y0107161D01*
X0032119Y0106612D01*
X0032119Y0105513D01*
X0031570Y0104963D01*
X0029921Y0104963D01*
X0028810Y0105513D02*
X0028810Y0106612D01*
X0028261Y0107161D01*
X0027162Y0107161D01*
X0026612Y0106612D01*
X0026612Y0105513D01*
X0027162Y0104963D01*
X0028261Y0104963D01*
X0028810Y0105513D01*
X0033230Y0105513D02*
X0033230Y0106612D01*
X0033780Y0107161D01*
X0034879Y0107161D01*
X0035428Y0106612D01*
X0035428Y0106062D01*
X0033230Y0106062D01*
X0033230Y0105513D02*
X0033780Y0104963D01*
X0034879Y0104963D01*
X0036539Y0104963D02*
X0036539Y0107161D01*
X0038188Y0107161D01*
X0038737Y0106612D01*
X0038737Y0104963D01*
X0007020Y0125978D02*
X0004330Y0125978D01*
X0003658Y0120692D02*
X0002986Y0120020D01*
X0002986Y0118675D01*
X0003658Y0118003D01*
X0004330Y0133289D02*
X0007020Y0133289D01*
D11*
X0033604Y0117331D02*
X0033604Y0115131D01*
X0036054Y0114731D01*
X0036254Y0114031D01*
X0036404Y0113531D01*
X0036604Y0113131D01*
X0036954Y0112531D01*
X0035504Y0110531D01*
X0035904Y0110081D01*
X0036254Y0109731D01*
X0036704Y0109331D01*
X0037054Y0109031D01*
X0039104Y0110431D01*
X0040254Y0109831D01*
X0041654Y0113831D01*
X0041157Y0114079D01*
X0040725Y0114429D01*
X0040377Y0114863D01*
X0040131Y0115361D01*
X0039996Y0115900D01*
X0039981Y0116456D01*
X0040085Y0117002D01*
X0040303Y0117513D01*
X0040626Y0117966D01*
X0041038Y0118339D01*
X0041520Y0118615D01*
X0042050Y0118782D01*
X0042604Y0118831D01*
X0043140Y0118765D01*
X0043651Y0118591D01*
X0044116Y0118317D01*
X0044515Y0117954D01*
X0044832Y0117517D01*
X0045053Y0117025D01*
X0045168Y0116498D01*
X0045175Y0115958D01*
X0045070Y0115428D01*
X0044861Y0114931D01*
X0044554Y0114487D01*
X0044163Y0114115D01*
X0043704Y0113831D01*
X0045254Y0109931D01*
X0045854Y0110181D01*
X0046454Y0110581D01*
X0048454Y0109181D01*
X0048854Y0109531D01*
X0049204Y0109881D01*
X0049604Y0110331D01*
X0049954Y0110781D01*
X0048504Y0112881D01*
X0048854Y0113481D01*
X0049054Y0114081D01*
X0049254Y0114881D01*
X0051704Y0115331D01*
X0051704Y0116481D01*
X0051654Y0117031D01*
X0051604Y0117531D01*
X0049154Y0117981D01*
X0048954Y0118631D01*
X0048704Y0119181D01*
X0048354Y0119781D01*
X0048304Y0119881D01*
X0049704Y0121831D01*
X0049304Y0122331D01*
X0048804Y0122831D01*
X0048404Y0123181D01*
X0048054Y0123431D01*
X0046004Y0121981D01*
X0045554Y0122231D01*
X0045104Y0122431D01*
X0044654Y0122631D01*
X0044204Y0122731D01*
X0043754Y0125181D01*
X0043154Y0125231D01*
X0042004Y0125231D01*
X0041504Y0125181D01*
X0041104Y0122781D01*
X0040354Y0122531D01*
X0039854Y0122331D01*
X0039154Y0121931D01*
X0037154Y0123381D01*
X0036704Y0123031D01*
X0036204Y0122531D01*
X0035804Y0122081D01*
X0035554Y0121831D01*
X0036954Y0119781D01*
X0036654Y0119281D01*
X0036354Y0118631D01*
X0036204Y0118081D01*
X0036054Y0117731D01*
X0033604Y0117331D01*
X0033604Y0117222D02*
X0040179Y0117222D01*
X0040094Y0117024D02*
X0033604Y0117024D01*
X0033604Y0116825D02*
X0040051Y0116825D01*
X0040013Y0116627D02*
X0033604Y0116627D01*
X0033604Y0116428D02*
X0039982Y0116428D01*
X0039987Y0116230D02*
X0033604Y0116230D01*
X0033604Y0116031D02*
X0039993Y0116031D01*
X0040013Y0115833D02*
X0033604Y0115833D01*
X0033604Y0115634D02*
X0040063Y0115634D01*
X0040112Y0115436D02*
X0033604Y0115436D01*
X0033604Y0115237D02*
X0040192Y0115237D01*
X0040290Y0115039D02*
X0034168Y0115039D01*
X0035384Y0114840D02*
X0040395Y0114840D01*
X0040554Y0114642D02*
X0036080Y0114642D01*
X0036136Y0114443D02*
X0040713Y0114443D01*
X0040953Y0114245D02*
X0036193Y0114245D01*
X0036250Y0114046D02*
X0041224Y0114046D01*
X0041620Y0113848D02*
X0036309Y0113848D01*
X0036369Y0113649D02*
X0041590Y0113649D01*
X0041521Y0113451D02*
X0036444Y0113451D01*
X0036543Y0113252D02*
X0041452Y0113252D01*
X0041382Y0113054D02*
X0036649Y0113054D01*
X0036765Y0112855D02*
X0041313Y0112855D01*
X0041243Y0112656D02*
X0036881Y0112656D01*
X0036901Y0112458D02*
X0041174Y0112458D01*
X0041104Y0112259D02*
X0036757Y0112259D01*
X0036613Y0112061D02*
X0041035Y0112061D01*
X0040965Y0111862D02*
X0036470Y0111862D01*
X0036326Y0111664D02*
X0040896Y0111664D01*
X0040826Y0111465D02*
X0036182Y0111465D01*
X0036038Y0111267D02*
X0040757Y0111267D01*
X0040687Y0111068D02*
X0035894Y0111068D01*
X0035750Y0110870D02*
X0040618Y0110870D01*
X0040548Y0110671D02*
X0035606Y0110671D01*
X0035556Y0110473D02*
X0040479Y0110473D01*
X0040409Y0110274D02*
X0039404Y0110274D01*
X0039784Y0110076D02*
X0040340Y0110076D01*
X0040270Y0109877D02*
X0040165Y0109877D01*
X0038875Y0110274D02*
X0035732Y0110274D01*
X0035909Y0110076D02*
X0038584Y0110076D01*
X0038294Y0109877D02*
X0036107Y0109877D01*
X0036312Y0109679D02*
X0038003Y0109679D01*
X0037712Y0109480D02*
X0036536Y0109480D01*
X0036761Y0109282D02*
X0037422Y0109282D01*
X0037131Y0109083D02*
X0036993Y0109083D01*
X0044407Y0112061D02*
X0049070Y0112061D01*
X0048933Y0112259D02*
X0044329Y0112259D01*
X0044250Y0112458D02*
X0048796Y0112458D01*
X0048659Y0112656D02*
X0044171Y0112656D01*
X0044092Y0112855D02*
X0048522Y0112855D01*
X0048605Y0113054D02*
X0044013Y0113054D01*
X0043934Y0113252D02*
X0048721Y0113252D01*
X0048836Y0113451D02*
X0043855Y0113451D01*
X0043776Y0113649D02*
X0048910Y0113649D01*
X0048976Y0113848D02*
X0043731Y0113848D01*
X0044051Y0114046D02*
X0049043Y0114046D01*
X0049095Y0114245D02*
X0044299Y0114245D01*
X0044507Y0114443D02*
X0049145Y0114443D01*
X0049194Y0114642D02*
X0044660Y0114642D01*
X0044798Y0114840D02*
X0049244Y0114840D01*
X0050114Y0115039D02*
X0044906Y0115039D01*
X0044990Y0115237D02*
X0051194Y0115237D01*
X0051704Y0115436D02*
X0045072Y0115436D01*
X0045111Y0115634D02*
X0051704Y0115634D01*
X0051704Y0115833D02*
X0045150Y0115833D01*
X0045174Y0116031D02*
X0051704Y0116031D01*
X0051704Y0116230D02*
X0045171Y0116230D01*
X0045169Y0116428D02*
X0051704Y0116428D01*
X0051691Y0116627D02*
X0045140Y0116627D01*
X0045096Y0116825D02*
X0051673Y0116825D01*
X0051655Y0117024D02*
X0045053Y0117024D01*
X0044964Y0117222D02*
X0051635Y0117222D01*
X0051615Y0117421D02*
X0044875Y0117421D01*
X0044757Y0117619D02*
X0051122Y0117619D01*
X0050041Y0117818D02*
X0044614Y0117818D01*
X0044446Y0118016D02*
X0049143Y0118016D01*
X0049082Y0118215D02*
X0044228Y0118215D01*
X0043953Y0118413D02*
X0049021Y0118413D01*
X0048960Y0118612D02*
X0043590Y0118612D01*
X0042770Y0118810D02*
X0048872Y0118810D01*
X0048782Y0119009D02*
X0036529Y0119009D01*
X0036620Y0119207D02*
X0048689Y0119207D01*
X0048573Y0119406D02*
X0036729Y0119406D01*
X0036848Y0119604D02*
X0048457Y0119604D01*
X0048343Y0119803D02*
X0036939Y0119803D01*
X0036803Y0120001D02*
X0048391Y0120001D01*
X0048533Y0120200D02*
X0036668Y0120200D01*
X0036532Y0120398D02*
X0048676Y0120398D01*
X0048818Y0120597D02*
X0036397Y0120597D01*
X0036261Y0120795D02*
X0048961Y0120795D01*
X0049103Y0120994D02*
X0036126Y0120994D01*
X0035990Y0121192D02*
X0049246Y0121192D01*
X0049388Y0121391D02*
X0035854Y0121391D01*
X0035719Y0121589D02*
X0049531Y0121589D01*
X0049673Y0121788D02*
X0035583Y0121788D01*
X0035710Y0121987D02*
X0039077Y0121987D01*
X0039252Y0121987D02*
X0045994Y0121987D01*
X0046012Y0121987D02*
X0049579Y0121987D01*
X0049421Y0122185D02*
X0046293Y0122185D01*
X0046574Y0122384D02*
X0049251Y0122384D01*
X0049053Y0122582D02*
X0046854Y0122582D01*
X0047135Y0122781D02*
X0048854Y0122781D01*
X0048635Y0122979D02*
X0047416Y0122979D01*
X0047696Y0123178D02*
X0048408Y0123178D01*
X0048131Y0123376D02*
X0047977Y0123376D01*
X0045636Y0122185D02*
X0039599Y0122185D01*
X0039986Y0122384D02*
X0045210Y0122384D01*
X0044764Y0122582D02*
X0040508Y0122582D01*
X0041104Y0122781D02*
X0044195Y0122781D01*
X0044158Y0122979D02*
X0041137Y0122979D01*
X0041170Y0123178D02*
X0044122Y0123178D01*
X0044086Y0123376D02*
X0041203Y0123376D01*
X0041236Y0123575D02*
X0044049Y0123575D01*
X0044013Y0123773D02*
X0041269Y0123773D01*
X0041303Y0123972D02*
X0043976Y0123972D01*
X0043940Y0124170D02*
X0041336Y0124170D01*
X0041369Y0124369D02*
X0043903Y0124369D01*
X0043867Y0124567D02*
X0041402Y0124567D01*
X0041435Y0124766D02*
X0043830Y0124766D01*
X0043794Y0124964D02*
X0041468Y0124964D01*
X0041501Y0125163D02*
X0043757Y0125163D01*
X0038803Y0122185D02*
X0035897Y0122185D01*
X0036073Y0122384D02*
X0038530Y0122384D01*
X0038256Y0122582D02*
X0036255Y0122582D01*
X0036454Y0122781D02*
X0037982Y0122781D01*
X0037708Y0122979D02*
X0036652Y0122979D01*
X0036893Y0123178D02*
X0037434Y0123178D01*
X0037160Y0123376D02*
X0037148Y0123376D01*
X0036437Y0118810D02*
X0042374Y0118810D01*
X0041514Y0118612D02*
X0036349Y0118612D01*
X0036295Y0118413D02*
X0041167Y0118413D01*
X0040900Y0118215D02*
X0036241Y0118215D01*
X0036176Y0118016D02*
X0040681Y0118016D01*
X0040520Y0117818D02*
X0036091Y0117818D01*
X0035371Y0117619D02*
X0040378Y0117619D01*
X0040263Y0117421D02*
X0034155Y0117421D01*
X0044486Y0111862D02*
X0049207Y0111862D01*
X0049344Y0111664D02*
X0044565Y0111664D01*
X0044644Y0111465D02*
X0049481Y0111465D01*
X0049618Y0111267D02*
X0044723Y0111267D01*
X0044802Y0111068D02*
X0049755Y0111068D01*
X0049893Y0110870D02*
X0044881Y0110870D01*
X0044960Y0110671D02*
X0049869Y0110671D01*
X0049715Y0110473D02*
X0046608Y0110473D01*
X0046292Y0110473D02*
X0045039Y0110473D01*
X0045118Y0110274D02*
X0045995Y0110274D01*
X0045602Y0110076D02*
X0045196Y0110076D01*
X0046892Y0110274D02*
X0049554Y0110274D01*
X0049378Y0110076D02*
X0047175Y0110076D01*
X0047459Y0109877D02*
X0049201Y0109877D01*
X0049002Y0109679D02*
X0047743Y0109679D01*
X0048026Y0109480D02*
X0048796Y0109480D01*
X0048570Y0109282D02*
X0048310Y0109282D01*
M02*
